/vscmnt/brussel_pixiu_data/_data_brussel/112/vsc11236/PredSimResults/SUBJ04mtu3D/weighted-LRposFixed/trackIG/worker_02.mot
version=1
nRows=4
nColumns=50
inDegrees=yes
endheader
                time	         pelvis_tilt	         pelvis_list	     pelvis_rotation	           pelvis_tx	           pelvis_ty	           pelvis_tz	       hip_flexion_r	     hip_adduction_r	      hip_rotation_r	        knee_angle_r	       ankle_angle_r	         mtp_angle_r	       hip_flexion_l	     hip_adduction_l	      hip_rotation_l	        knee_angle_l	       ankle_angle_l	         mtp_angle_l	    lumbar_extension	      lumbar_bending	     lumbar_rotation	 ercspn_r/activation	 intobl_r/activation	 extobl_r/activation	    abd_r/activation	    add_r/activation	hamstrings_r/activation	bifemsh_r/activation	glut_max_r/activation	iliopsoas_r/activation	rect_fem_r/activation	  vasti_r/activation	gastroc_r/activation	 soleus_r/activation	tib_ant_r/activation	 ercspn_l/activation	 intobl_l/activation	 extobl_l/activation	    abd_l/activation	    add_l/activation	hamstrings_l/activation	bifemsh_l/activation	glut_max_l/activation	iliopsoas_l/activation	rect_fem_l/activation	  vasti_l/activation	gastroc_l/activation	 soleus_l/activation	tib_ant_l/activation	
          1.38650086	         -5.31553685	         -4.76683403	         12.11355110	          1.20625574	          0.88476022	         -0.02133605	         24.29628431	          0.33804586	         -5.11066587	          2.36534324	          5.32394732	          0.21147717	         -8.29501402	         -4.27372088	         15.98854455	         -8.01427501	         12.65908372	         22.07756486	         -3.03540865	          1.64545707	         -0.89547346	          0.09325708	          0.15514089	          0.02288026	          0.02457508	          0.09226417	          0.02887880	          0.01000086	          0.01000000	          0.05779075	          0.01149465	          0.02093584	          0.01000001	          0.01000001	          0.26391444	          0.02691747	          0.01000000	          0.01000001	          0.09843763	          0.01000004	          0.01966115	          0.14607030	          0.07131502	          0.33995914	          0.01000011	          0.01000001	          0.30640007	          0.27506525	          0.01515566	
          1.40036586	         -5.44096886	         -4.66059989	         11.99496416	          1.22076504	          0.88287046	         -0.02024114	         23.93479213	          0.61599968	         -3.80560178	          1.84404476	          4.99426823	          0.21856661	         -8.52468991	         -4.13692187	         15.16987370	         -9.25390581	         12.51628479	         23.69633971	         -2.76191994	          1.92987826	         -1.14259296	          0.07575207	          0.15368044	          0.01858547	          0.01996217	          0.12091889	          0.02711489	          0.01000030	          0.01043313	          0.04694301	          0.01000073	          0.01700609	          0.01602716	          0.01535786	          0.26437100	          0.05309011	          0.01000000	          0.01000002	          0.07996017	          0.01616891	          0.01655952	          0.11865186	          0.06462628	          0.30917268	          0.01000008	          0.01000001	          0.28558562	          0.27236707	          0.01231083	
          1.41423087	         -5.55033201	         -4.54803458	         11.81169271	          1.23566065	          0.88112440	         -0.01905120	         23.44731485	          0.89373873	         -2.54237331	          1.28163301	          4.60953655	          0.21140218	         -8.69969332	         -3.97589002	         14.29472801	        -10.67711476	         12.25974019	         25.36607646	         -2.47021874	          2.22960487	         -1.38329979	          0.06607843	          0.16628324	          0.01509684	          0.02551681	          0.09822156	          0.02959873	          0.05710588	          0.01943337	          0.03813146	          0.01000007	          0.01381394	          0.01301875	          0.01247508	          0.29833299	          0.07177460	          0.01000000	          0.01000003	          0.06495105	          0.03083964	          0.01345272	          0.09638005	          0.05275929	          0.27053502	          0.01000021	          0.01000004	          0.26074141	          0.26275344	          0.01000000	
          1.42809588	         -5.64429088	         -4.43420379	         11.55315175	          1.25075772	          0.87972549	         -0.01775276	         22.85257286	          1.18629467	         -1.35175538	          0.91112975	          4.09061268	          0.19920424	         -8.76214239	         -3.78684267	         13.37170667	        -12.35218416	         11.83174755	         27.07917143	         -2.17942953	          2.55174090	         -1.61610494	          0.06920247	          0.15058953	          0.01226306	          0.04795853	          0.07978473	          0.03002113	          0.04638685	          0.02998264	          0.03097391	          0.01000007	          0.01122104	          0.01057506	          0.01013343	          0.32420865	          0.09590261	          0.01000000	          0.01000002	          0.05275926	          0.03200774	          0.01298109	          0.07828882	          0.04285600	          0.22618189	          0.01000054	          0.01000009	          0.22720025	          0.24558994	          0.01000000	
